<mxfile host="app.diagrams.net" agent="Mozilla/5.0 (Windows NT 10.0; Win64; x64) AppleWebKit/537.36 (KHTML, like Gecko) Chrome/136.0.0.0 Safari/537.36" version="27.1.1">
  <diagram name="PÃ¡gina-1" id="HzEoKzV8cTz-qbzTkeme">
    <mxGraphModel dx="1722" dy="619" grid="1" gridSize="10" guides="1" tooltips="1" connect="1" arrows="1" fold="1" page="1" pageScale="1" pageWidth="1169" pageHeight="827" math="0" shadow="0">
      <root>
        <mxCell id="0" />
        <mxCell id="1" parent="0" />
        <mxCell id="Qc57WbRolfH4Te-wwQ6t-5" value="&lt;div&gt;&lt;span style=&quot;font-weight: 400;&quot;&gt;&amp;lt;&amp;lt;abstract&amp;gt;&amp;gt;&lt;/span&gt;&lt;i&gt;&lt;/i&gt;&lt;/div&gt;&lt;i&gt;Filtro&lt;/i&gt;" style="swimlane;fontStyle=1;align=center;verticalAlign=top;childLayout=stackLayout;horizontal=1;startSize=43;horizontalStack=0;resizeParent=1;resizeParentMax=0;resizeLast=0;collapsible=1;marginBottom=0;whiteSpace=wrap;html=1;" parent="1" vertex="1">
          <mxGeometry x="370" y="267" width="230" height="151" as="geometry" />
        </mxCell>
        <mxCell id="Qc57WbRolfH4Te-wwQ6t-7" value="" style="line;strokeWidth=1;fillColor=none;align=left;verticalAlign=middle;spacingTop=-1;spacingLeft=3;spacingRight=3;rotatable=0;labelPosition=right;points=[];portConstraint=eastwest;strokeColor=inherit;" parent="Qc57WbRolfH4Te-wwQ6t-5" vertex="1">
          <mxGeometry y="43" width="230" height="8" as="geometry" />
        </mxCell>
        <mxCell id="Qc57WbRolfH4Te-wwQ6t-8" value="+ getSimilarPages(page: WikipediaPage, wikipedia: List&amp;lt;WikipediaPage): List&amp;lt;WikipediaPage&amp;gt;&lt;div&gt;+ &lt;i&gt;esSimilar(page: WikipediaPage, otherPage:WikipediaPage): boolean&lt;/i&gt;&lt;/div&gt;" style="text;strokeColor=none;fillColor=none;align=left;verticalAlign=top;spacingLeft=4;spacingRight=4;overflow=hidden;rotatable=0;points=[[0,0.5],[1,0.5]];portConstraint=eastwest;whiteSpace=wrap;html=1;" parent="Qc57WbRolfH4Te-wwQ6t-5" vertex="1">
          <mxGeometry y="51" width="230" height="100" as="geometry" />
        </mxCell>
        <mxCell id="Qc57WbRolfH4Te-wwQ6t-32" value="&lt;div&gt;&lt;span style=&quot;font-weight: normal;&quot;&gt;&amp;lt;&amp;lt;interface&amp;gt;&amp;gt;&lt;/span&gt;&lt;/div&gt;WikipediaPage" style="swimlane;fontStyle=1;align=center;verticalAlign=top;childLayout=stackLayout;horizontal=1;startSize=40;horizontalStack=0;resizeParent=1;resizeParentMax=0;resizeLast=0;collapsible=1;marginBottom=0;whiteSpace=wrap;html=1;" parent="1" vertex="1">
          <mxGeometry x="40" y="240" width="230" height="188" as="geometry" />
        </mxCell>
        <mxCell id="Qc57WbRolfH4Te-wwQ6t-34" value="" style="line;strokeWidth=1;fillColor=none;align=left;verticalAlign=middle;spacingTop=-1;spacingLeft=3;spacingRight=3;rotatable=0;labelPosition=right;points=[];portConstraint=eastwest;strokeColor=inherit;" parent="Qc57WbRolfH4Te-wwQ6t-32" vertex="1">
          <mxGeometry y="40" width="230" height="8" as="geometry" />
        </mxCell>
        <mxCell id="Qc57WbRolfH4Te-wwQ6t-35" value="+ getTitle(): String&lt;div&gt;+ getLinks: List&amp;lt;WikipediaPage&amp;gt;&lt;/div&gt;&lt;div&gt;+ getInfobox(): Map&amp;lt;String, WikipediaPage&amp;gt;&lt;/div&gt;" style="text;strokeColor=none;fillColor=none;align=left;verticalAlign=top;spacingLeft=4;spacingRight=4;overflow=hidden;rotatable=0;points=[[0,0.5],[1,0.5]];portConstraint=eastwest;whiteSpace=wrap;html=1;" parent="Qc57WbRolfH4Te-wwQ6t-32" vertex="1">
          <mxGeometry y="48" width="230" height="140" as="geometry" />
        </mxCell>
        <mxCell id="Qc57WbRolfH4Te-wwQ6t-46" value="" style="edgeStyle=orthogonalEdgeStyle;rounded=0;orthogonalLoop=1;jettySize=auto;html=1;dashed=1;dashPattern=8 8;" parent="1" edge="1">
          <mxGeometry relative="1" as="geometry">
            <mxPoint x="270" y="339.58" as="sourcePoint" />
            <mxPoint x="370" y="339.58" as="targetPoint" />
          </mxGeometry>
        </mxCell>
        <mxCell id="Qc57WbRolfH4Te-wwQ6t-50" value="" style="endArrow=block;endSize=16;endFill=0;html=1;rounded=0;entryX=0.522;entryY=0.125;entryDx=0;entryDy=0;entryPerimeter=0;" parent="1" edge="1">
          <mxGeometry width="160" relative="1" as="geometry">
            <mxPoint x="640" y="340" as="sourcePoint" />
            <mxPoint x="600" y="339.8" as="targetPoint" />
          </mxGeometry>
        </mxCell>
        <mxCell id="Qc57WbRolfH4Te-wwQ6t-51" value="" style="line;strokeWidth=1;fillColor=none;align=left;verticalAlign=middle;spacingTop=-1;spacingLeft=3;spacingRight=3;rotatable=0;labelPosition=right;points=[];portConstraint=eastwest;strokeColor=inherit;" parent="1" vertex="1">
          <mxGeometry x="640" y="306" width="40" height="8" as="geometry" />
        </mxCell>
        <mxCell id="Qc57WbRolfH4Te-wwQ6t-52" value="" style="line;strokeWidth=1;fillColor=none;align=left;verticalAlign=middle;spacingTop=-1;spacingLeft=3;spacingRight=3;rotatable=0;labelPosition=right;points=[];portConstraint=eastwest;strokeColor=inherit;" parent="1" vertex="1">
          <mxGeometry x="640" y="480" width="40" height="8" as="geometry" />
        </mxCell>
        <mxCell id="Qc57WbRolfH4Te-wwQ6t-54" value="" style="line;strokeWidth=1;fillColor=none;align=left;verticalAlign=middle;spacingTop=-1;spacingLeft=3;spacingRight=3;rotatable=0;labelPosition=right;points=[];portConstraint=eastwest;strokeColor=inherit;" parent="1" vertex="1">
          <mxGeometry x="640" y="96" width="40" height="8" as="geometry" />
        </mxCell>
        <mxCell id="Qc57WbRolfH4Te-wwQ6t-67" value="" style="endArrow=none;html=1;rounded=0;" parent="1" edge="1">
          <mxGeometry width="50" height="50" relative="1" as="geometry">
            <mxPoint x="640" y="420" as="sourcePoint" />
            <mxPoint x="640" y="100" as="targetPoint" />
          </mxGeometry>
        </mxCell>
        <mxCell id="oDu-elSPVG2kTsfX2Yhw-3" value="MismaLetraInicial" style="swimlane;fontStyle=1;align=center;verticalAlign=top;childLayout=stackLayout;horizontal=1;startSize=26;horizontalStack=0;resizeParent=1;resizeParentMax=0;resizeLast=0;collapsible=1;marginBottom=0;whiteSpace=wrap;html=1;" parent="1" vertex="1">
          <mxGeometry x="680" y="37" width="200" height="126" as="geometry" />
        </mxCell>
        <mxCell id="oDu-elSPVG2kTsfX2Yhw-5" value="" style="line;strokeWidth=1;fillColor=none;align=left;verticalAlign=middle;spacingTop=-1;spacingLeft=3;spacingRight=3;rotatable=0;labelPosition=right;points=[];portConstraint=eastwest;strokeColor=inherit;" parent="oDu-elSPVG2kTsfX2Yhw-3" vertex="1">
          <mxGeometry y="26" width="200" height="20" as="geometry" />
        </mxCell>
        <mxCell id="oDu-elSPVG2kTsfX2Yhw-6" value="&lt;div&gt;+ esSimilar(page: WikipediaPage, otherPage: WikipediaPage): boolean&lt;/div&gt;" style="text;strokeColor=none;fillColor=none;align=left;verticalAlign=top;spacingLeft=4;spacingRight=4;overflow=hidden;rotatable=0;points=[[0,0.5],[1,0.5]];portConstraint=eastwest;whiteSpace=wrap;html=1;" parent="oDu-elSPVG2kTsfX2Yhw-3" vertex="1">
          <mxGeometry y="46" width="200" height="80" as="geometry" />
        </mxCell>
        <mxCell id="oDu-elSPVG2kTsfX2Yhw-20" value="" style="endArrow=none;html=1;rounded=0;" parent="1" edge="1">
          <mxGeometry width="50" height="50" relative="1" as="geometry">
            <mxPoint x="640" y="484" as="sourcePoint" />
            <mxPoint x="640" y="262" as="targetPoint" />
          </mxGeometry>
        </mxCell>
        <mxCell id="Zt4OQGu-WjS-hnEIgENB-2" value="LinkEnComun" style="swimlane;fontStyle=1;align=center;verticalAlign=top;childLayout=stackLayout;horizontal=1;startSize=26;horizontalStack=0;resizeParent=1;resizeParentMax=0;resizeLast=0;collapsible=1;marginBottom=0;whiteSpace=wrap;html=1;" vertex="1" parent="1">
          <mxGeometry x="680" y="240" width="200" height="126" as="geometry" />
        </mxCell>
        <mxCell id="Zt4OQGu-WjS-hnEIgENB-3" value="" style="line;strokeWidth=1;fillColor=none;align=left;verticalAlign=middle;spacingTop=-1;spacingLeft=3;spacingRight=3;rotatable=0;labelPosition=right;points=[];portConstraint=eastwest;strokeColor=inherit;" vertex="1" parent="Zt4OQGu-WjS-hnEIgENB-2">
          <mxGeometry y="26" width="200" height="20" as="geometry" />
        </mxCell>
        <mxCell id="Zt4OQGu-WjS-hnEIgENB-4" value="&lt;div&gt;+ esSimilar(page: WikipediaPage, otherPage: WikipediaPage): boolean&lt;/div&gt;" style="text;strokeColor=none;fillColor=none;align=left;verticalAlign=top;spacingLeft=4;spacingRight=4;overflow=hidden;rotatable=0;points=[[0,0.5],[1,0.5]];portConstraint=eastwest;whiteSpace=wrap;html=1;" vertex="1" parent="Zt4OQGu-WjS-hnEIgENB-2">
          <mxGeometry y="46" width="200" height="80" as="geometry" />
        </mxCell>
        <mxCell id="Zt4OQGu-WjS-hnEIgENB-5" value="PropiedadEnComun" style="swimlane;fontStyle=1;align=center;verticalAlign=top;childLayout=stackLayout;horizontal=1;startSize=26;horizontalStack=0;resizeParent=1;resizeParentMax=0;resizeLast=0;collapsible=1;marginBottom=0;whiteSpace=wrap;html=1;" vertex="1" parent="1">
          <mxGeometry x="680" y="440" width="200" height="126" as="geometry" />
        </mxCell>
        <mxCell id="Zt4OQGu-WjS-hnEIgENB-6" value="" style="line;strokeWidth=1;fillColor=none;align=left;verticalAlign=middle;spacingTop=-1;spacingLeft=3;spacingRight=3;rotatable=0;labelPosition=right;points=[];portConstraint=eastwest;strokeColor=inherit;" vertex="1" parent="Zt4OQGu-WjS-hnEIgENB-5">
          <mxGeometry y="26" width="200" height="20" as="geometry" />
        </mxCell>
        <mxCell id="Zt4OQGu-WjS-hnEIgENB-7" value="&lt;div&gt;+ esSimilar(page: WikipediaPage, otherPage: WikipediaPage): boolean&lt;/div&gt;" style="text;strokeColor=none;fillColor=none;align=left;verticalAlign=top;spacingLeft=4;spacingRight=4;overflow=hidden;rotatable=0;points=[[0,0.5],[1,0.5]];portConstraint=eastwest;whiteSpace=wrap;html=1;" vertex="1" parent="Zt4OQGu-WjS-hnEIgENB-5">
          <mxGeometry y="46" width="200" height="80" as="geometry" />
        </mxCell>
      </root>
    </mxGraphModel>
  </diagram>
</mxfile>
